<svg xmlns="http://www.w3.org/2000/svg" xmlns:xlink="http://www.w3.org/1999/xlink" width="905.828" height="403.717" viewBox="0 0 679.371 302.788"><defs><clipPath id="a"><path d="M49 14.703h1v109.961h-1Zm0 0"/></clipPath><clipPath id="c"><path d="M91 14.703h2v109.961h-2Zm0 0"/></clipPath><clipPath id="e"><path d="M134 14.703h1v109.961h-1Zm0 0"/></clipPath><clipPath id="g"><path d="M176 14.703h2v109.961h-2Zm0 0"/></clipPath><clipPath id="h"><path d="M219 14.703h1v109.961h-1Zm0 0"/></clipPath><clipPath id="j"><path d="M40.969 124h186.976v.664H40.97Zm0 0"/></clipPath><clipPath id="l"><path d="M40.969 99h186.976v2H40.97Zm0 0"/></clipPath><clipPath id="m"><path d="M40.969 74h186.976v2H40.97Zm0 0"/></clipPath><clipPath id="n"><path d="M40.969 49h186.976v2H40.97Zm0 0"/></clipPath><clipPath id="p"><path d="M40.969 24h186.976v2H40.97Zm0 0"/></clipPath><clipPath id="q"><path d="M48 23h173v101.664H48Zm0 0"/></clipPath><clipPath id="r"><path d="M46 121h7v3.664h-7Zm0 0"/></clipPath><clipPath id="s"><path d="M45 121h8v3.664h-8Zm0 0"/></clipPath><clipPath id="t"><path d="M40.969 33h186.976v3H40.97Zm0 0"/></clipPath><clipPath id="J"><path d="M273 14.703h2v109.961h-2Zm0 0"/></clipPath><clipPath id="K"><path d="M315 14.703h2v109.961h-2Zm0 0"/></clipPath><clipPath id="L"><path d="M358 14.703h2v109.961h-2Zm0 0"/></clipPath><clipPath id="M"><path d="M400 14.703h2v109.961h-2Zm0 0"/></clipPath><clipPath id="N"><path d="M443 14.703h2v109.961h-2Zm0 0"/></clipPath><clipPath id="O"><path d="M265.371 124h186.973v.664H265.37Zm0 0"/></clipPath><clipPath id="P"><path d="M265.371 99h186.973v2H265.37Zm0 0"/></clipPath><clipPath id="Q"><path d="M265.371 74h186.973v2H265.37Zm0 0"/></clipPath><clipPath id="R"><path d="M265.371 49h186.973v2H265.37Zm0 0"/></clipPath><clipPath id="S"><path d="M265.371 24h186.973v2H265.37Zm0 0"/></clipPath><clipPath id="T"><path d="M273 33h172v91.664H273Zm0 0"/></clipPath><clipPath id="U"><path d="M270 121h7v3.664h-7Zm0 0"/></clipPath><clipPath id="V"><path d="M270 121h8v3.664h-8Zm0 0"/></clipPath><clipPath id="W"><path d="M265.371 53h186.973v3H265.37Zm0 0"/></clipPath><clipPath id="X"><path d="M497 14.703h2v109.961h-2Zm0 0"/></clipPath><clipPath id="Y"><path d="M540 14.703h2v109.961h-2Zm0 0"/></clipPath><clipPath id="Z"><path d="M582 14.703h2v109.961h-2Zm0 0"/></clipPath><clipPath id="aa"><path d="M625 14.703h2v109.961h-2Zm0 0"/></clipPath><clipPath id="ab"><path d="M667 14.703h2v109.961h-2Zm0 0"/></clipPath><clipPath id="ac"><path d="M489.77 124h186.976v.664H489.77Zm0 0"/></clipPath><clipPath id="ad"><path d="M489.77 99h186.976v2H489.77Zm0 0"/></clipPath><clipPath id="ae"><path d="M489.77 74h186.976v2H489.77Zm0 0"/></clipPath><clipPath id="af"><path d="M489.77 49h186.976v2H489.77Zm0 0"/></clipPath><clipPath id="ag"><path d="M489.77 24h186.976v2H489.77Zm0 0"/></clipPath><clipPath id="ah"><path d="M497 43h172v81.664H497Zm0 0"/></clipPath><clipPath id="ai"><path d="M495 121h7v3.664h-7Zm0 0"/></clipPath><clipPath id="aj"><path d="M494 121h8v3.664h-8Zm0 0"/></clipPath><clipPath id="ak"><path d="M489.77 33h186.976v3H489.77Zm0 0"/></clipPath><clipPath id="ap"><path d="M49 163.203h1v109.961h-1Zm0 0"/></clipPath><clipPath id="aq"><path d="M91 163.203h2v109.961h-2Zm0 0"/></clipPath><clipPath id="ar"><path d="M134 163.203h1v109.961h-1Zm0 0"/></clipPath><clipPath id="as"><path d="M176 163.203h2v109.961h-2Zm0 0"/></clipPath><clipPath id="at"><path d="M219 163.203h1v109.961h-1Zm0 0"/></clipPath><clipPath id="au"><path d="M40.969 272h186.976v1.164H40.97Zm0 0"/></clipPath><clipPath id="av"><path d="M40.969 247h186.976v2H40.97Zm0 0"/></clipPath><clipPath id="aw"><path d="M40.969 222h186.976v2H40.97Zm0 0"/></clipPath><clipPath id="ax"><path d="M40.969 197h186.976v2H40.97Zm0 0"/></clipPath><clipPath id="ay"><path d="M40.969 172h186.976v2H40.97Zm0 0"/></clipPath><clipPath id="az"><path d="M48 182h173v91.164H48Zm0 0"/></clipPath><clipPath id="aA"><path d="M46 270h7v3.164h-7Zm0 0"/></clipPath><clipPath id="aB"><path d="M45 269h8v4.164h-8Zm0 0"/></clipPath><clipPath id="aC"><path d="M40.969 192h186.976v2H40.97Zm0 0"/></clipPath><clipPath id="aD"><path d="M273 163.203h2v109.961h-2Zm0 0"/></clipPath><clipPath id="aE"><path d="M315 163.203h2v109.961h-2Zm0 0"/></clipPath><clipPath id="aF"><path d="M358 163.203h2v109.961h-2Zm0 0"/></clipPath><clipPath id="aG"><path d="M400 163.203h2v109.961h-2Zm0 0"/></clipPath><clipPath id="aH"><path d="M443 163.203h2v109.961h-2Zm0 0"/></clipPath><clipPath id="aI"><path d="M265.371 272h186.973v1.164H265.37Zm0 0"/></clipPath><clipPath id="aJ"><path d="M265.371 247h186.973v2H265.37Zm0 0"/></clipPath><clipPath id="aK"><path d="M265.371 222h186.973v2H265.37Zm0 0"/></clipPath><clipPath id="aL"><path d="M265.371 197h186.973v2H265.37Zm0 0"/></clipPath><clipPath id="aM"><path d="M265.371 172h186.973v2H265.37Zm0 0"/></clipPath><clipPath id="aN"><path d="M273 172h172v101.164H273Zm0 0"/></clipPath><clipPath id="aO"><path d="M270 270h7v3.164h-7Zm0 0"/></clipPath><clipPath id="aP"><path d="M270 269h8v4.164h-8Zm0 0"/></clipPath><clipPath id="aQ"><path d="M265.371 172h186.973v2H265.37Zm0 0"/></clipPath><clipPath id="aR"><path d="M497 163.203h2v109.961h-2Zm0 0"/></clipPath><clipPath id="aS"><path d="M540 163.203h2v109.961h-2Zm0 0"/></clipPath><clipPath id="aT"><path d="M582 163.203h2v109.961h-2Zm0 0"/></clipPath><clipPath id="aU"><path d="M625 163.203h2v109.961h-2Zm0 0"/></clipPath><clipPath id="aV"><path d="M667 163.203h2v109.961h-2Zm0 0"/></clipPath><clipPath id="aW"><path d="M489.77 272h186.976v1.164H489.77Zm0 0"/></clipPath><clipPath id="aX"><path d="M489.77 247h186.976v2H489.77Zm0 0"/></clipPath><clipPath id="aY"><path d="M489.77 222h186.976v2H489.77Zm0 0"/></clipPath><clipPath id="aZ"><path d="M489.77 197h186.976v2H489.77Zm0 0"/></clipPath><clipPath id="ba"><path d="M489.77 172h186.976v2H489.77Zm0 0"/></clipPath><clipPath id="bb"><path d="M497 182h172v91.164H497Zm0 0"/></clipPath><clipPath id="bc"><path d="M495 270h7v3.164h-7Zm0 0"/></clipPath><clipPath id="bd"><path d="M494 269h8v4.164h-8Zm0 0"/></clipPath><clipPath id="be"><path d="M489.77 192h186.976v2H489.77Zm0 0"/></clipPath><clipPath id="bf"><path d="M321 292h48v10.79h-48Zm0 0"/></clipPath><path id="b" d="M5.172-3.441c0 1.152-.211 2.03-.613 2.632-.399.598-1 .899-1.79.899-.8 0-1.39-.3-1.789-.899C.578-1.41.39-2.28.39-3.44.39-4.621.579-5.5.97-6.09c.383-.59.992-.89 1.832-.89.8 0 1.398.3 1.789.89.379.602.582 1.48.582 2.649m-.89 0c0-.989-.122-1.707-.352-2.16-.23-.438-.61-.669-1.13-.669q-.808 0-1.171.66C1.39-5.171 1.28-4.44 1.28-3.44c0 .98.117 1.691.36 2.14.238.461.62.68 1.14.68.508 0 .89-.23 1.13-.688.237-.46.37-1.171.37-2.132m0 0"/><path id="d" d="M5.14-2.238q0 1.09-.652 1.707c-.43.422-1.027.62-1.789.62-.64 0-1.16-.128-1.55-.41C.75-.6.5-1 .398-1.538l.89-.102c.18.68.66 1.02 1.43 1.02q.707 0 1.11-.418c.26-.281.401-.68.401-1.18 0-.43-.14-.781-.41-1.05-.27-.262-.629-.403-1.082-.403a2 2 0 0 0-.668.113 2 2 0 0 0-.61.38H.603l.226-3.7h3.91v.75h-3.11L1.5-3.949c.379-.29.852-.442 1.422-.442q1.02 0 1.617.602c.402.398.602.91.602 1.55m0 0"/><path id="f" d="M.762 0v-.75h1.75v-5.29L.96-4.93v-.832L2.59-6.879h.808V-.75H5.07V0Zm0 0"/><path id="i" d="M.5 0v-.621c.16-.379.371-.707.61-1.008.242-.293.492-.55.75-.793.261-.226.53-.45.788-.648.262-.2.493-.41.704-.61q.3-.3.5-.629c.128-.222.199-.48.199-.761 0-.371-.121-.66-.34-.871-.223-.207-.531-.32-.922-.32a1.42 1.42 0 0 0-.93.312c-.238.199-.379.488-.418.847L.54-5.18c.063-.55.3-.992.7-1.308.402-.32.921-.492 1.55-.492.691 0 1.223.171 1.602.492q.556.491.558 1.386c0 .274-.07.543-.187.801a3 3 0 0 1-.543.79q-.36.393-1.38 1.222a9 9 0 0 0-.89.828c-.219.25-.379.492-.48.711h3.59V0Zm0 0"/><path id="k" d="M.91 0v-1.07h.961V0Zm0 0"/><path id="o" d="M5.059-6.172C4.352-5.09 3.852-4.25 3.559-3.64q-.436.916-.649 1.801A8 8 0 0 0 2.7 0H1.78c0-.879.18-1.8.559-2.77.37-.968.988-2.09 1.87-3.359H.513v-.75h4.547Zm0 0"/><path id="u" d="M7.367-2.328c0 .742-.273 1.308-.804 1.715Q5.754 0 4.332 0H.984v-8.258h3c1.93 0 2.903.672 2.903 2.004 0 .492-.145.902-.407 1.238-.277.336-.66.551-1.164.66q.973.123 1.512.66.54.54.54 1.368M5.762-6.121c0-.43-.157-.754-.457-.945-.313-.196-.746-.29-1.32-.29H2.101v2.602h1.882c.602 0 1.043-.105 1.332-.336.29-.215.446-.562.446-1.031m.476 3.71c0-.972-.683-1.464-2.05-1.464H2.102v2.977h2.171c.684 0 1.188-.122 1.5-.375.313-.25.465-.633.465-1.137m0 0"/><path id="v" d="M6.168-3.18c0 1.118-.254 1.946-.73 2.485-.493.539-1.204.804-2.125.804-.938 0-1.633-.277-2.102-.84C.73-1.284.504-2.1.504-3.18q.001-3.276 2.844-3.277c.96 0 1.68.277 2.136.805.457.527.684 1.355.684 2.472m-1.106 0c0-.863-.128-1.5-.394-1.894-.266-.399-.695-.602-1.309-.602-.625 0-1.066.203-1.343.614-.278.406-.407 1.03-.407 1.882 0 .84.13 1.477.407 1.895.265.422.695.625 1.285.625q.938.001 1.355-.613c.266-.407.407-1.043.407-1.907m0 0"/><path id="w" d="M6.875 0H5.652L4.547-4.488l-.215-.985c-.035.18-.098.434-.168.758-.07.336-.469 1.906-1.187 4.715H1.754L0-6.336h1.02l1.082 4.309c.023.093.105.48.25 1.152l.097-.434 1.32-5.027h1.137l1.106 4.344.265 1.117.192-.816 1.199-4.645h1.031Zm0 0"/><path id="x" d="M.805 0v-8.7h1.054V0Zm0 0"/><path id="z" d="M2.113-5.566V0H1.055v-5.566H.168v-.77h.887v-.719c0-.578.12-.984.386-1.25.25-.25.633-.383 1.164-.383.286 0 .54.024.743.07v.806c-.18-.024-.336-.047-.47-.047-.26 0-.468.07-.585.203-.121.144-.18.383-.18.746v.574h1.235v.77Zm0 0"/><path id="A" d="M.828 0v-4.86q0-.668-.035-1.476h.996c.024.719.047 1.152.047 1.297h.023q.251-.811.579-1.117c.214-.192.527-.301.933-.301.133 0 .277.023.422.062v.957a2.3 2.3 0 0 0-.555-.058q-.661 0-1.008.574c-.238.387-.347.926-.347 1.621V0Zm0 0"/><path id="B" d="M4.5 0v-4.02c0-.613-.086-1.03-.254-1.273-.168-.227-.476-.348-.91-.348-.457 0-.805.18-1.066.516-.266.348-.387.828-.387 1.453V0H.828v-4.992q0-1.093-.035-1.344h.996c0 .024.012.07.012.156 0 .094.012.192.012.301 0 .106.011.313.023.621h.023c.215-.441.48-.754.77-.933.285-.168.648-.266 1.078-.266.48 0 .852.098 1.14.289.278.191.47.504.59.91h.012q.324-.625.79-.91.467-.288 1.128-.289c.637 0 1.106.18 1.395.527.285.352.441.914.441 1.707V0H8.16v-4.02c0-.613-.086-1.03-.254-1.273-.168-.227-.476-.348-.91-.348-.457 0-.816.18-1.066.516-.266.336-.387.828-.387 1.453V0Zm0 0"/><path id="C" d="M7.453-2.281c0 .77-.3 1.355-.902 1.765-.598.418-1.426.625-2.508.625C2.027.11.852-.59.539-1.98l1.094-.214c.12.504.383.863.793 1.09.406.242.957.347 1.652.347.723 0 1.285-.117 1.684-.37.383-.24.586-.61.586-1.09 0-.266-.07-.493-.192-.66-.12-.169-.3-.302-.515-.411a4 4 0 0 0-.805-.273c-.313-.075-.649-.157-1.02-.243-.648-.144-1.152-.289-1.488-.43a2.7 2.7 0 0 1-.793-.492 1.64 1.64 0 0 1-.441-.625 1.9 1.9 0 0 1-.157-.816c0-.707.262-1.246.801-1.633q.815-.574 2.328-.574c.938 0 1.645.145 2.149.43.492.289.84.78 1.047 1.465l-1.106.19c-.12-.429-.36-.753-.695-.944-.336-.196-.805-.301-1.406-.301-.672 0-1.176.12-1.524.336-.347.215-.515.539-.515.972 0 .262.058.465.203.633.133.168.324.301.59.422.25.121.753.25 1.511.418.25.063.504.121.754.184.254.058.492.129.735.215.226.082.445.18.648.3.191.117.371.25.516.418a2 2 0 0 1 .347.578c.082.215.133.48.133.778m0 0"/><path id="D" d="M1.86-5.258c.214-.406.492-.719.816-.91.312-.191.719-.289 1.21-.289.684 0 1.188.18 1.512.516s.493.914.493 1.718V0H4.836v-4.02c0-.445-.047-.78-.133-.996a.83.83 0 0 0-.406-.468 1.74 1.74 0 0 0-.77-.157c-.504 0-.898.18-1.199.516-.3.348-.445.805-.445 1.383V0H.828v-8.7h1.055v2.266c0 .243-.012.493-.024.747-.011.25-.023.394-.023.43Zm0 0"/><path id="E" d="M1.621-2.953q-.002 1.1.442 1.691c.3.399.746.59 1.32.59.457 0 .816-.086 1.094-.277.277-.18.468-.406.562-.696l.938.266C5.594-.383 4.727.11 3.383.11c-.934 0-1.656-.277-2.149-.828-.492-.554-.73-1.394-.73-2.496 0-1.031.238-1.836.73-2.402.493-.551 1.204-.84 2.114-.84 1.859 0 2.797 1.129 2.797 3.371v.133Zm3.43-.805c-.059-.656-.227-1.137-.516-1.449s-.683-.469-1.21-.469c-.516 0-.927.18-1.212.516-.3.336-.457.805-.48 1.402Zm0 0"/><path id="F" d="M3.254-.047c-.363.082-.711.133-1.07.133C1.332.086.91-.383.91-1.344v-4.222H.18v-.77h.78l.302-1.418h.707v1.418h1.176v.77H1.969v3.996c0 .308.047.527.144.644.094.121.274.184.528.184q.198 0 .613-.086Zm0 0"/><path id="G" d="M4.223-7.344V0H3.109v-7.344H.266v-.914h6.789v.914Zm0 0"/><path id="H" d="M2.426.11C1.789.11 1.309-.048.984-.384s-.48-.793-.48-1.383q0-.966.648-1.511c.434-.348 1.13-.54 2.102-.563l1.414-.023v-.348c0-.516-.121-.89-.336-1.105s-.562-.336-1.02-.336c-.48 0-.816.086-1.03.242-.22.168-.348.418-.387.765L.793-4.754c.168-1.125 1.02-1.703 2.543-1.703.793 0 1.379.191 1.789.555q.61.538.61 1.582v2.722c0 .313.038.555.12.711.086.168.243.239.47.239.097 0 .214-.012.347-.047v.66c-.266.047-.54.082-.817.082-.394 0-.683-.094-.851-.3-.18-.192-.277-.517-.3-.958h-.036c-.277.48-.59.828-.95 1.02-.359.191-.788.3-1.292.3m.238-.782c.383 0 .73-.086 1.031-.265.301-.168.54-.407.707-.72.168-.312.266-.624.266-.948v-.528l-1.152.024c-.504.011-.875.062-1.13.156a1.2 1.2 0 0 0-.585.433c-.145.192-.203.458-.203.766 0 .352.082.613.273.805.18.191.445.277.793.277m0 0"/><path id="I" d="M6.168-3.203C6.168-.996 5.387.109 3.84.109c-.48 0-.887-.086-1.2-.254-.324-.167-.59-.457-.78-.84h-.012c0 .122-.012.313-.024.551A10 10 0 0 0 1.79 0H.77q.036-.303.036-1.309v-7.39h1.054v2.484c0 .262-.011.563-.023.899h.023c.192-.407.457-.696.782-.875.312-.168.718-.266 1.199-.266.793 0 1.379.277 1.765.816.372.54.563 1.356.563 2.438m-1.106.035c0-.887-.117-1.512-.359-1.894-.238-.387-.61-.579-1.14-.579-.598 0-1.032.204-1.293.614-.278.406-.41 1.043-.41 1.93 0 .84.132 1.452.398 1.85.262.395.695.587 1.293.587.527 0 .914-.192 1.152-.586.242-.387.36-1.035.36-1.922m0 0"/><path id="al" d="M7.367-5.773c0 .793-.262 1.418-.765 1.875-.504.453-1.204.683-2.079.683H2.102V0H.984v-8.258h3.48c.911 0 1.634.219 2.138.649.503.433.765 1.047.765 1.836m-1.113.011c0-1.054-.649-1.593-1.934-1.593H2.102v3.25h2.265c1.25 0 1.887-.551 1.887-1.657m0 0"/><path id="am" d="M.805-7.691V-8.7h1.054v1.008ZM.805 0v-6.336h1.054V0Zm0 0"/><path id="an" d="M4.836 0v-4.02c0-.41-.047-.734-.133-.972-.082-.227-.215-.395-.394-.492-.18-.094-.446-.157-.782-.157-.515 0-.922.18-1.21.528q-.434.521-.434 1.441V0H.828v-4.992q0-1.093-.035-1.344h.996c0 .024.012.07.012.156 0 .094.012.192.012.301 0 .106.011.313.023.621h.023c.243-.43.516-.742.84-.922.313-.18.707-.277 1.188-.277.699 0 1.203.18 1.523.516.313.347.48.925.48 1.718V0Zm0 0"/><path id="ao" d="M6.168-3.203C6.168-.996 5.387.109 3.84.109 2.855.11 2.207-.254 1.87-.984h-.035c.012.035.023.359.023.984v2.484H.805v-7.523q0-.974-.035-1.297h1.02c0 .024.01.07.022.168 0 .098.012.254.024.445 0 .192.012.336.012.407h.023c.192-.383.434-.672.746-.864.313-.18.719-.277 1.223-.277.77 0 1.355.266 1.738.793.387.527.59 1.344.59 2.46m-1.106.023c0-.875-.117-1.5-.359-1.882-.238-.387-.625-.579-1.14-.579-.418 0-.743.098-.985.266-.238.18-.418.453-.539.828-.117.371-.18.852-.18 1.45 0 .84.133 1.452.399 1.85.262.395.695.587 1.293.587.527 0 .914-.192 1.152-.574q.362-.58.36-1.946m0 0"/><path id="bg" d="m6.84 0-.95-2.41H2.138L1.187 0H.024l3.372-8.258h1.273L7.98 0ZM4.008-7.414l-.047.168c-.098.336-.242.742-.434 1.246L2.473-3.29h3.082L4.5-6.011a7 7 0 0 1-.324-.914Zm0 0"/><path id="bh" d="M5.566-1.754c0 .602-.226 1.07-.683 1.383-.453.324-1.078.48-1.883.48-.793 0-1.402-.12-1.836-.386C.73-.527.457-.937.336-1.488l.926-.18c.093.336.273.59.562.742.278.168.672.242 1.176.242.527 0 .91-.074 1.164-.242.238-.168.371-.406.371-.742a.8.8 0 0 0-.262-.602c-.168-.156-.445-.285-.816-.394l-.758-.203c-.61-.145-1.043-.301-1.297-.457a1.7 1.7 0 0 1-.597-.551C.66-4.094.59-4.355.59-4.668c0-.574.203-1.008.61-1.32.41-.301 1.007-.457 1.8-.457.695 0 1.262.133 1.668.375q.61.374.793 1.187l-.961.117a.92.92 0 0 0-.469-.644C3.77-5.555 3.434-5.64 3-5.64c-.48 0-.828.074-1.055.214-.23.145-.336.375-.336.66 0 .18.047.325.145.446.094.12.226.215.418.3q.269.122 1.152.336c.551.145.961.262 1.211.383q.362.181.578.399c.145.14.25.308.336.504.07.191.117.406.117.644m0 0"/><path id="bi" d="M-2.281-7.453c.77 0 1.355.3 1.765.902.418.598.625 1.426.625 2.508C.11-2.027-.59-.852-1.98-.539l-.214-1.094c.504-.12.863-.383 1.09-.793.242-.406.347-.957.347-1.652 0-.723-.117-1.285-.37-1.684-.24-.383-.61-.586-1.09-.586-.266 0-.493.07-.66.192-.169.12-.302.3-.411.515-.106.23-.203.493-.273.805-.075.313-.157.649-.243 1.02-.144.648-.289 1.152-.43 1.488a2.7 2.7 0 0 1-.492.793 1.64 1.64 0 0 1-.625.441c-.242.11-.503.157-.816.157-.707 0-1.246-.262-1.633-.801q-.574-.815-.574-2.328c0-.938.145-1.645.43-2.149.289-.492.78-.84 1.465-1.047l.19 1.106c-.429.12-.753.36-.944.695-.196.336-.301.805-.301 1.406 0 .672.12 1.176.336 1.524.215.347.539.515.972.515.262 0 .465-.058.633-.203.168-.133.301-.324.422-.59.121-.25.25-.753.418-1.511.063-.25.121-.504.184-.754.058-.254.129-.492.215-.735.082-.226.18-.445.3-.648.117-.191.25-.371.418-.516a2 2 0 0 1 .578-.347c.215-.082.48-.133.778-.133m0 0"/><path id="bj" d="M-6.336-1.836h4.02c.421 0 .746-.035.972-.121q.358-.124.504-.395.146-.27.145-.793c0-.503-.168-.91-.516-1.199s-.828-.445-1.453-.445h-3.672v-1.055h4.98c.743 0 1.188-.011 1.356-.035v.996c-.012.012-.059.024-.156.024-.082 0-.18.011-.301.011-.105 0-.313.012-.621.012v.024c.43.242.742.527.922.84.168.312.265.706.265 1.187 0 .695-.168 1.2-.515 1.523-.336.325-.914.48-1.707.48h-4.223Zm0 0"/><path id="bk" d="M-3.203-1.61c.851 0 1.476-.128 1.883-.394.41-.266.601-.672.601-1.21 0-.36-.097-.673-.3-.927-.192-.25-.504-.406-.938-.48l.074-1.066c.61.093 1.09.359 1.45.792q.543.647.542 1.657c0 .886-.277 1.57-.828 2.039-.554.469-1.383.695-2.46.695-1.055 0-1.872-.226-2.438-.707-.551-.469-.84-1.14-.84-2.016 0-.648.168-1.175.504-1.609s.805-.695 1.394-.816l.07 1.093a1.43 1.43 0 0 0-.827.407c-.204.226-.313.539-.313.949 0 .562.191.973.566 1.223.372.253.997.37 1.86.37m0 0"/><path id="bl" d="M-2.953-1.621q1.1.002 1.691-.441c.399-.301.59-.747.59-1.32 0-.458-.086-.817-.277-1.095-.18-.277-.406-.468-.696-.562l.266-.938C-.383-5.594.11-4.727.11-3.383c0 .934-.277 1.656-.828 2.149-.554.492-1.394.73-2.496.73-1.031 0-1.836-.238-2.402-.73-.551-.493-.84-1.203-.84-2.114 0-1.859 1.129-2.797 3.371-2.797h.133Zm-.805-3.43c-.656.059-1.137.227-1.449.516s-.469.683-.469 1.21c0 .516.18.927.516 1.212.336.3.805.457 1.402.48Zm0 0"/><path id="bm" d="M-1.754-5.566c.602 0 1.07.226 1.383.683.324.453.48 1.078.48 1.883 0 .793-.12 1.402-.386 1.836-.25.434-.66.707-1.211.828l-.18-.926c.336-.093.59-.273.742-.562.168-.278.242-.672.242-1.176 0-.527-.074-.91-.242-1.164-.168-.238-.406-.371-.742-.371a.8.8 0 0 0-.602.262c-.156.168-.285.445-.394.816l-.203.758c-.145.61-.301 1.043-.457 1.297a1.7 1.7 0 0 1-.551.597c-.219.145-.48.215-.793.215-.574 0-1.008-.203-1.32-.61-.301-.41-.457-1.007-.457-1.8 0-.695.133-1.262.375-1.668q.374-.61 1.187-.793l.117.961a.92.92 0 0 0-.644.469c-.145.261-.23.597-.23 1.031 0 .48.074.828.214 1.055.145.23.375.336.66.336.18 0 .325-.047.446-.145.12-.094.215-.226.3-.418q.122-.269.336-1.152c.145-.551.262-.961.383-1.211q.181-.362.399-.578c.14-.145.308-.25.504-.336.191-.07.406-.117.644-.117m0 0"/><path id="bo" d="M0-6.816-3.434-4.68v2.578H0v1.118h-8.258v-3.887c0-.926.219-1.645.625-2.149.422-.503.996-.757 1.742-.757q.915 0 1.547.543.628.54.793 1.472L0-8.113Zm-5.879.156c-.48 0-.84.168-1.094.492-.25.336-.382.805-.382 1.414v2.652h3.046V-4.8c0-.586-.132-1.043-.406-1.367-.277-.324-.66-.492-1.164-.492m0 0"/><path id="bp" d="M.11-2.426c0 .637-.157 1.117-.493 1.442s-.793.48-1.383.48q-.966 0-1.511-.648c-.348-.434-.54-1.13-.563-2.102l-.023-1.414h-.348c-.516 0-.89.121-1.105.336s-.336.562-.336 1.02c0 .48.086.816.242 1.03.168.22.418.348.765.387l-.109 1.102c-1.125-.168-1.703-1.02-1.703-2.543 0-.793.191-1.379.555-1.789q.538-.61 1.582-.61h2.722c.313 0 .555-.038.711-.12.168-.086.239-.243.239-.47 0-.097-.012-.214-.047-.347h.66c.047.266.082.54.082.817 0 .394-.094.683-.3.851-.192.18-.517.277-.958.3v.036c.48.277.828.59 1.02.95.191.359.3.788.3 1.292m-.782-.238c0-.383-.086-.73-.265-1.031-.168-.301-.407-.54-.72-.707-.312-.168-.624-.266-.948-.266h-.528l.024 1.152c.011.504.062.875.156 1.13.098.261.242.452.433.585.192.145.458.203.766.203.352 0 .613-.082.805-.273.191-.18.277-.445.277-.793m0 0"/><path id="bq" d="M-.047-3.254c.082.363.133.711.133 1.07 0 .852-.469 1.274-1.43 1.274h-4.222v.73h-.77v-.78l-1.418-.302v-.707h1.418v-1.176h.77v1.176h3.996c.308 0 .527-.047.644-.144.121-.094.184-.274.184-.528q0-.198-.086-.613Zm0 0"/></defs><path fill="#fff" d="M0 302.79h679.371V0H0Zm0 0"/><path fill="#fff" d="M40.969 124.664h186.976V14.704H40.97Zm0 0"/><g clip-path="url(#a)"><path fill="none" stroke="#ccc" stroke-linecap="round" stroke-linejoin="round" stroke-miterlimit="10" stroke-width=".8" d="M49.469 124.664V14.704"/></g><use xlink:href="#b" x="46.688" y="135.413" fill="#262626"/><g clip-path="url(#c)"><path fill="none" stroke="#ccc" stroke-linecap="round" stroke-linejoin="round" stroke-miterlimit="10" stroke-width=".8" d="M91.965 124.664V14.704"/></g><g fill="#262626"><use xlink:href="#d" x="83.619" y="135.413"/><use xlink:href="#b" x="89.179" y="135.413"/><use xlink:href="#b" x="94.739" y="135.413"/></g><g clip-path="url(#e)"><path fill="none" stroke="#ccc" stroke-linecap="round" stroke-linejoin="round" stroke-miterlimit="10" stroke-width=".8" d="M134.457 124.664V14.704"/></g><g fill="#262626"><use xlink:href="#f" x="123.332" y="135.413"/><use xlink:href="#b" x="128.892" y="135.413"/><use xlink:href="#b" x="134.452" y="135.413"/><use xlink:href="#b" x="140.012" y="135.413"/></g><g clip-path="url(#g)"><path fill="none" stroke="#ccc" stroke-linecap="round" stroke-linejoin="round" stroke-miterlimit="10" stroke-width=".8" d="M176.953 124.664V14.704"/></g><g fill="#262626"><use xlink:href="#f" x="165.827" y="135.413"/><use xlink:href="#d" x="171.387" y="135.413"/><use xlink:href="#b" x="176.947" y="135.413"/><use xlink:href="#b" x="182.507" y="135.413"/></g><g clip-path="url(#h)"><path fill="none" stroke="#ccc" stroke-linecap="round" stroke-linejoin="round" stroke-miterlimit="10" stroke-width=".8" d="M219.445 124.664V14.704"/></g><g fill="#262626"><use xlink:href="#i" x="208.321" y="135.413"/><use xlink:href="#b" x="213.881" y="135.413"/><use xlink:href="#b" x="219.441" y="135.413"/><use xlink:href="#b" x="225.001" y="135.413"/></g><g clip-path="url(#j)"><path fill="none" stroke="#ccc" stroke-linecap="round" stroke-linejoin="round" stroke-miterlimit="10" stroke-width=".8" d="M40.969 124.664h186.976"/></g><g fill="#262626"><use xlink:href="#b" x="18.001" y="128.288"/><use xlink:href="#k" x="23.561" y="128.288"/><use xlink:href="#b" x="26.341" y="128.288"/><use xlink:href="#b" x="31.901" y="128.288"/></g><g clip-path="url(#l)"><path fill="none" stroke="#ccc" stroke-linecap="round" stroke-linejoin="round" stroke-miterlimit="10" stroke-width=".8" d="M40.969 99.672h186.976"/></g><g fill="#262626"><use xlink:href="#b" x="18.001" y="103.297"/><use xlink:href="#k" x="23.561" y="103.297"/><use xlink:href="#i" x="26.341" y="103.297"/><use xlink:href="#d" x="31.901" y="103.297"/></g><g clip-path="url(#m)"><path fill="none" stroke="#ccc" stroke-linecap="round" stroke-linejoin="round" stroke-miterlimit="10" stroke-width=".8" d="M40.969 74.68h186.976"/></g><g fill="#262626"><use xlink:href="#b" x="18.001" y="78.306"/><use xlink:href="#k" x="23.561" y="78.306"/><use xlink:href="#d" x="26.341" y="78.306"/><use xlink:href="#b" x="31.901" y="78.306"/></g><g clip-path="url(#n)"><path fill="none" stroke="#ccc" stroke-linecap="round" stroke-linejoin="round" stroke-miterlimit="10" stroke-width=".8" d="M40.969 49.691h186.976"/></g><g fill="#262626"><use xlink:href="#b" x="18.001" y="53.315"/><use xlink:href="#k" x="23.561" y="53.315"/><use xlink:href="#o" x="26.341" y="53.315"/><use xlink:href="#d" x="31.901" y="53.315"/></g><g clip-path="url(#p)"><path fill="none" stroke="#ccc" stroke-linecap="round" stroke-linejoin="round" stroke-miterlimit="10" stroke-width=".8" d="M40.969 24.7h186.976"/></g><g fill="#262626"><use xlink:href="#f" x="18.001" y="28.324"/><use xlink:href="#k" x="23.561" y="28.324"/><use xlink:href="#b" x="26.341" y="28.324"/><use xlink:href="#b" x="31.901" y="28.324"/></g><g clip-path="url(#q)"><path fill="none" stroke="#ff0048" stroke-linecap="round" stroke-linejoin="round" stroke-miterlimit="10" stroke-width="1.5" d="m49.469 124.664 42.496-29.988 42.492-29.992 42.496-29.989 42.492-9.996"/></g><g clip-path="url(#r)"><path fill="#ff0048" d="M49.469 127.664a3 3 0 0 0 3-3 3 3 0 0 0-3-3 3 3 0 0 0-3 3 3.005 3.005 0 0 0 3 3m0 0"/></g><g clip-path="url(#s)"><path fill="none" stroke="#ff0048" stroke-linejoin="round" stroke-miterlimit="10" d="M49.469 127.664a3 3 0 0 0 3-3 3 3 0 0 0-3-3 3 3 0 0 0-3 3 3.005 3.005 0 0 0 3 3Zm0 0"/></g><path fill="#ff0048" stroke="#ff0048" stroke-linejoin="round" stroke-miterlimit="10" d="M91.965 97.676a3.005 3.005 0 0 0 3-3c0-.797-.317-1.559-.88-2.125a3 3 0 0 0-2.12-.875 2.994 2.994 0 0 0-3 3 2.998 2.998 0 0 0 3 3ZM134.457 67.684a3 3 0 0 0 3-3 3.005 3.005 0 0 0-3-3 3 3 0 0 0-3 3 3 3 0 0 0 3 3ZM176.953 37.695a3.005 3.005 0 0 0 3-3 3 3 0 0 0-3-3 3 3 0 0 0-3 3 3 3 0 0 0 3 3ZM219.445 27.7a3 3 0 0 0 3-3 3 3 0 0 0-3-3 3.005 3.005 0 0 0-3 3 3 3 0 0 0 3 3Zm0 0"/><g clip-path="url(#t)"><path fill="none" stroke="#000" stroke-dasharray="5.55 2.4" stroke-linejoin="round" stroke-miterlimit="10" stroke-width="1.5" d="M40.969 34.695h186.976"/></g><path fill="none" stroke="#ccc" stroke-linecap="square" stroke-miterlimit="10" d="M40.969 124.664V14.704M227.945 124.664V14.704M40.969 124.664h186.976M40.969 14.703h186.976"/><g fill="#262626"><use xlink:href="#u" x="69.926" y="8.703"/><use xlink:href="#v" x="77.93" y="8.703"/><use xlink:href="#w" x="84.602" y="8.703"/><use xlink:href="#x" x="93.266" y="8.703"/><use xlink:href="#y" x="95.93" y="8.703"/><use xlink:href="#z" x="99.266" y="8.703"/><use xlink:href="#A" x="102.602" y="8.703"/><use xlink:href="#v" x="106.598" y="8.703"/><use xlink:href="#B" x="113.27" y="8.703"/><use xlink:href="#y" x="123.266" y="8.703"/><use xlink:href="#C" x="126.602" y="8.703"/><use xlink:href="#D" x="134.606" y="8.703"/><use xlink:href="#E" x="141.278" y="8.703"/><use xlink:href="#x" x="147.95" y="8.703"/><use xlink:href="#z" x="150.614" y="8.703"/><use xlink:href="#y" x="153.95" y="8.703"/><use xlink:href="#F" x="157.286" y="8.703"/><use xlink:href="#v" x="160.622" y="8.703"/><use xlink:href="#y" x="167.294" y="8.703"/></g><use xlink:href="#G" x="170.427" y="8.703" fill="#262626"/><g fill="#262626"><use xlink:href="#H" x="176.431" y="8.703"/><use xlink:href="#I" x="183.103" y="8.703"/><use xlink:href="#x" x="189.775" y="8.703"/><use xlink:href="#E" x="192.439" y="8.703"/></g><path fill="#fff" d="M265.371 124.664h186.973V14.704H265.37Zm0 0"/><g clip-path="url(#J)"><path fill="none" stroke="#ccc" stroke-linecap="round" stroke-linejoin="round" stroke-miterlimit="10" stroke-width=".8" d="M273.867 124.664V14.704"/></g><use xlink:href="#b" x="271.088" y="135.413" fill="#262626"/><g clip-path="url(#K)"><path fill="none" stroke="#ccc" stroke-linecap="round" stroke-linejoin="round" stroke-miterlimit="10" stroke-width=".8" d="M316.363 124.664V14.704"/></g><g fill="#262626"><use xlink:href="#d" x="308.019" y="135.413"/><use xlink:href="#b" x="313.579" y="135.413"/><use xlink:href="#b" x="319.139" y="135.413"/></g><g clip-path="url(#L)"><path fill="none" stroke="#ccc" stroke-linecap="round" stroke-linejoin="round" stroke-miterlimit="10" stroke-width=".8" d="M358.86 124.664V14.704"/></g><g fill="#262626"><use xlink:href="#f" x="347.732" y="135.413"/><use xlink:href="#b" x="353.292" y="135.413"/><use xlink:href="#b" x="358.852" y="135.413"/><use xlink:href="#b" x="364.412" y="135.413"/></g><g clip-path="url(#M)"><path fill="none" stroke="#ccc" stroke-linecap="round" stroke-linejoin="round" stroke-miterlimit="10" stroke-width=".8" d="M401.352 124.664V14.704"/></g><g fill="#262626"><use xlink:href="#f" x="390.227" y="135.413"/><use xlink:href="#d" x="395.787" y="135.413"/><use xlink:href="#b" x="401.347" y="135.413"/><use xlink:href="#b" x="406.907" y="135.413"/></g><g clip-path="url(#N)"><path fill="none" stroke="#ccc" stroke-linecap="round" stroke-linejoin="round" stroke-miterlimit="10" stroke-width=".8" d="M443.848 124.664V14.704"/></g><g fill="#262626"><use xlink:href="#i" x="432.721" y="135.413"/><use xlink:href="#b" x="438.281" y="135.413"/><use xlink:href="#b" x="443.841" y="135.413"/><use xlink:href="#b" x="449.401" y="135.413"/></g><g clip-path="url(#O)"><path fill="none" stroke="#ccc" stroke-linecap="round" stroke-linejoin="round" stroke-miterlimit="10" stroke-width=".8" d="M265.371 124.664h186.973"/></g><g fill="#262626"><use xlink:href="#b" x="242.401" y="128.288"/><use xlink:href="#k" x="247.961" y="128.288"/><use xlink:href="#b" x="250.741" y="128.288"/><use xlink:href="#b" x="256.301" y="128.288"/></g><g clip-path="url(#P)"><path fill="none" stroke="#ccc" stroke-linecap="round" stroke-linejoin="round" stroke-miterlimit="10" stroke-width=".8" d="M265.371 99.672h186.973"/></g><g fill="#262626"><use xlink:href="#b" x="242.401" y="103.297"/><use xlink:href="#k" x="247.961" y="103.297"/><use xlink:href="#i" x="250.741" y="103.297"/><use xlink:href="#d" x="256.301" y="103.297"/></g><g clip-path="url(#Q)"><path fill="none" stroke="#ccc" stroke-linecap="round" stroke-linejoin="round" stroke-miterlimit="10" stroke-width=".8" d="M265.371 74.68h186.973"/></g><g fill="#262626"><use xlink:href="#b" x="242.401" y="78.306"/><use xlink:href="#k" x="247.961" y="78.306"/><use xlink:href="#d" x="250.741" y="78.306"/><use xlink:href="#b" x="256.301" y="78.306"/></g><g clip-path="url(#R)"><path fill="none" stroke="#ccc" stroke-linecap="round" stroke-linejoin="round" stroke-miterlimit="10" stroke-width=".8" d="M265.371 49.691h186.973"/></g><g fill="#262626"><use xlink:href="#b" x="242.401" y="53.315"/><use xlink:href="#k" x="247.961" y="53.315"/><use xlink:href="#o" x="250.741" y="53.315"/><use xlink:href="#d" x="256.301" y="53.315"/></g><g clip-path="url(#S)"><path fill="none" stroke="#ccc" stroke-linecap="round" stroke-linejoin="round" stroke-miterlimit="10" stroke-width=".8" d="M265.371 24.7h186.973"/></g><g fill="#262626"><use xlink:href="#f" x="242.401" y="28.324"/><use xlink:href="#k" x="247.961" y="28.324"/><use xlink:href="#b" x="250.741" y="28.324"/><use xlink:href="#b" x="256.301" y="28.324"/></g><g clip-path="url(#T)"><path fill="none" stroke="#ff4800" stroke-linecap="round" stroke-linejoin="round" stroke-miterlimit="10" stroke-width="1.5" d="m273.867 124.664 42.496-19.992 42.496-9.996 42.493-29.992 42.496-29.989"/></g><g clip-path="url(#U)"><path fill="#ff4800" d="M273.867 127.664a3 3 0 0 0 3-3c0-.797-.312-1.559-.879-2.121a3 3 0 0 0-4.242 0 3 3 0 0 0 0 4.242 3 3 0 0 0 2.121.88m0 0"/></g><g clip-path="url(#V)"><path fill="none" stroke="#ff4800" stroke-linejoin="round" stroke-miterlimit="10" d="M273.867 127.664a3 3 0 0 0 3-3c0-.797-.312-1.559-.879-2.121a3 3 0 0 0-4.242 0 3 3 0 0 0 0 4.242 3 3 0 0 0 2.121.88Zm0 0"/></g><path fill="#ff4800" stroke="#ff4800" stroke-linejoin="round" stroke-miterlimit="10" d="M316.363 107.672a3 3 0 0 0 3-3 3 3 0 0 0-3-3 3 3 0 0 0-3 3 3.005 3.005 0 0 0 3 3ZM358.86 97.676a3.005 3.005 0 0 0 3-3c0-.797-.317-1.559-.88-2.125a3 3 0 0 0-2.12-.875c-.798 0-1.563.312-2.126.875a3.01 3.01 0 0 0 0 4.246 3 3 0 0 0 2.125.879ZM401.352 67.684a3 3 0 0 0 3-3 3.005 3.005 0 0 0-3-3 3 3 0 0 0-3 3 3 3 0 0 0 3 3ZM443.848 37.695a3.005 3.005 0 0 0 3-3 3 3 0 0 0-3-3 3 3 0 0 0-3 3 3 3 0 0 0 3 3Zm0 0"/><g clip-path="url(#W)"><path fill="none" stroke="#000" stroke-dasharray="5.55 2.4" stroke-linejoin="round" stroke-miterlimit="10" stroke-width="1.5" d="M265.371 54.688h186.973"/></g><path fill="none" stroke="#ccc" stroke-linecap="square" stroke-miterlimit="10" d="M265.371 124.664V14.704M452.344 124.664V14.704M265.371 124.664h186.973M265.371 14.703h186.973"/><g fill="#262626"><use xlink:href="#u" x="323.85" y="8.703"/><use xlink:href="#v" x="331.854" y="8.703"/><use xlink:href="#w" x="338.526" y="8.703"/><use xlink:href="#x" x="347.19" y="8.703"/><use xlink:href="#y" x="349.854" y="8.703"/><use xlink:href="#F" x="353.19" y="8.703"/><use xlink:href="#v" x="356.526" y="8.703"/><use xlink:href="#y" x="363.198" y="8.703"/><use xlink:href="#C" x="366.534" y="8.703"/><use xlink:href="#D" x="374.538" y="8.703"/><use xlink:href="#E" x="381.21" y="8.703"/><use xlink:href="#x" x="387.882" y="8.703"/><use xlink:href="#z" x="390.546" y="8.703"/></g><path fill="#fff" d="M489.77 124.664h186.976V14.704H489.77Zm0 0"/><g clip-path="url(#X)"><path fill="none" stroke="#ccc" stroke-linecap="round" stroke-linejoin="round" stroke-miterlimit="10" stroke-width=".8" d="M498.27 124.664V14.704"/></g><use xlink:href="#b" x="495.488" y="135.413" fill="#262626"/><g clip-path="url(#Y)"><path fill="none" stroke="#ccc" stroke-linecap="round" stroke-linejoin="round" stroke-miterlimit="10" stroke-width=".8" d="M540.762 124.664V14.704"/></g><g fill="#262626"><use xlink:href="#d" x="532.419" y="135.413"/><use xlink:href="#b" x="537.979" y="135.413"/><use xlink:href="#b" x="543.539" y="135.413"/></g><g clip-path="url(#Z)"><path fill="none" stroke="#ccc" stroke-linecap="round" stroke-linejoin="round" stroke-miterlimit="10" stroke-width=".8" d="M583.258 124.664V14.704"/></g><g fill="#262626"><use xlink:href="#f" x="572.132" y="135.413"/><use xlink:href="#b" x="577.692" y="135.413"/><use xlink:href="#b" x="583.252" y="135.413"/><use xlink:href="#b" x="588.812" y="135.413"/></g><g clip-path="url(#aa)"><path fill="none" stroke="#ccc" stroke-linecap="round" stroke-linejoin="round" stroke-miterlimit="10" stroke-width=".8" d="M625.75 124.664V14.704"/></g><g fill="#262626"><use xlink:href="#f" x="614.627" y="135.413"/><use xlink:href="#d" x="620.187" y="135.413"/><use xlink:href="#b" x="625.747" y="135.413"/><use xlink:href="#b" x="631.307" y="135.413"/></g><g clip-path="url(#ab)"><path fill="none" stroke="#ccc" stroke-linecap="round" stroke-linejoin="round" stroke-miterlimit="10" stroke-width=".8" d="M668.246 124.664V14.704"/></g><g fill="#262626"><use xlink:href="#i" x="657.121" y="135.413"/><use xlink:href="#b" x="662.681" y="135.413"/><use xlink:href="#b" x="668.241" y="135.413"/><use xlink:href="#b" x="673.801" y="135.413"/></g><g clip-path="url(#ac)"><path fill="none" stroke="#ccc" stroke-linecap="round" stroke-linejoin="round" stroke-miterlimit="10" stroke-width=".8" d="M489.77 124.664h186.976"/></g><g fill="#262626"><use xlink:href="#b" x="466.801" y="128.288"/><use xlink:href="#k" x="472.361" y="128.288"/><use xlink:href="#b" x="475.141" y="128.288"/><use xlink:href="#b" x="480.701" y="128.288"/></g><g clip-path="url(#ad)"><path fill="none" stroke="#ccc" stroke-linecap="round" stroke-linejoin="round" stroke-miterlimit="10" stroke-width=".8" d="M489.77 99.672h186.976"/></g><g fill="#262626"><use xlink:href="#b" x="466.801" y="103.297"/><use xlink:href="#k" x="472.361" y="103.297"/><use xlink:href="#i" x="475.141" y="103.297"/><use xlink:href="#d" x="480.701" y="103.297"/></g><g clip-path="url(#ae)"><path fill="none" stroke="#ccc" stroke-linecap="round" stroke-linejoin="round" stroke-miterlimit="10" stroke-width=".8" d="M489.77 74.68h186.976"/></g><g fill="#262626"><use xlink:href="#b" x="466.801" y="78.306"/><use xlink:href="#k" x="472.361" y="78.306"/><use xlink:href="#d" x="475.141" y="78.306"/><use xlink:href="#b" x="480.701" y="78.306"/></g><g clip-path="url(#af)"><path fill="none" stroke="#ccc" stroke-linecap="round" stroke-linejoin="round" stroke-miterlimit="10" stroke-width=".8" d="M489.77 49.691h186.976"/></g><g fill="#262626"><use xlink:href="#b" x="466.801" y="53.315"/><use xlink:href="#k" x="472.361" y="53.315"/><use xlink:href="#o" x="475.141" y="53.315"/><use xlink:href="#d" x="480.701" y="53.315"/></g><g clip-path="url(#ag)"><path fill="none" stroke="#ccc" stroke-linecap="round" stroke-linejoin="round" stroke-miterlimit="10" stroke-width=".8" d="M489.77 24.7h186.976"/></g><g fill="#262626"><use xlink:href="#f" x="466.801" y="28.324"/><use xlink:href="#k" x="472.361" y="28.324"/><use xlink:href="#b" x="475.141" y="28.324"/><use xlink:href="#b" x="480.701" y="28.324"/></g><g clip-path="url(#ah)"><path fill="none" stroke="#ffb200" stroke-linecap="round" stroke-linejoin="round" stroke-miterlimit="10" stroke-width="1.5" d="m498.27 124.664 42.492-39.988 42.496-9.996 42.492-9.996 42.496-19.993"/></g><g clip-path="url(#ai)"><path fill="#ffb200" d="M498.27 127.664a3 3 0 0 0 3-3 3 3 0 0 0-3-3 3 3 0 0 0-3 3 3.005 3.005 0 0 0 3 3m0 0"/></g><g clip-path="url(#aj)"><path fill="none" stroke="#ffb200" stroke-linejoin="round" stroke-miterlimit="10" d="M498.27 127.664a3 3 0 0 0 3-3 3 3 0 0 0-3-3 3 3 0 0 0-3 3 3.005 3.005 0 0 0 3 3Zm0 0"/></g><path fill="#ffb200" stroke="#ffb200" stroke-linejoin="round" stroke-miterlimit="10" d="M540.762 87.676a2.994 2.994 0 0 0 3-3 3.005 3.005 0 0 0-3-3 3.005 3.005 0 0 0-3 3c0 .797.316 1.562.879 2.125a3 3 0 0 0 2.12.875ZM583.258 77.68a3 3 0 0 0 3-3 3.005 3.005 0 0 0-3-3 3 3 0 0 0-3 3 3 3 0 0 0 3 3ZM625.75 67.684a2.994 2.994 0 0 0 3-3 3 3 0 0 0-.875-2.121 3.005 3.005 0 0 0-5.125 2.121 3 3 0 0 0 3 3ZM668.246 47.691a3 3 0 0 0 3-3 3.005 3.005 0 0 0-3-3 3 3 0 0 0-3 3 3 3 0 0 0 3 3Zm0 0"/><g clip-path="url(#ak)"><path fill="none" stroke="#000" stroke-dasharray="5.55 2.4" stroke-linejoin="round" stroke-miterlimit="10" stroke-width="1.5" d="M489.77 34.695h186.976"/></g><path fill="none" stroke="#ccc" stroke-linecap="square" stroke-miterlimit="10" d="M489.77 124.664V14.704M676.746 124.664V14.704M489.77 124.664h186.976M489.77 14.703h186.976"/><g fill="#262626"><use xlink:href="#al" x="505.711" y="8.703"/><use xlink:href="#am" x="513.715" y="8.703"/><use xlink:href="#an" x="516.379" y="8.703"/><use xlink:href="#E" x="523.051" y="8.703"/><use xlink:href="#H" x="529.723" y="8.703"/><use xlink:href="#ao" x="536.395" y="8.703"/><use xlink:href="#ao" x="543.067" y="8.703"/><use xlink:href="#x" x="549.739" y="8.703"/><use xlink:href="#E" x="552.403" y="8.703"/><use xlink:href="#y" x="559.075" y="8.703"/><use xlink:href="#z" x="562.411" y="8.703"/><use xlink:href="#A" x="565.747" y="8.703"/><use xlink:href="#v" x="569.743" y="8.703"/><use xlink:href="#B" x="576.415" y="8.703"/><use xlink:href="#y" x="586.411" y="8.703"/><use xlink:href="#u" x="589.747" y="8.703"/><use xlink:href="#v" x="597.751" y="8.703"/><use xlink:href="#w" x="604.423" y="8.703"/><use xlink:href="#x" x="613.087" y="8.703"/><use xlink:href="#y" x="615.751" y="8.703"/><use xlink:href="#F" x="619.087" y="8.703"/><use xlink:href="#v" x="622.423" y="8.703"/><use xlink:href="#y" x="629.095" y="8.703"/></g><use xlink:href="#G" x="632.227" y="8.703" fill="#262626"/><g fill="#262626"><use xlink:href="#H" x="638.231" y="8.703"/><use xlink:href="#I" x="644.903" y="8.703"/><use xlink:href="#x" x="651.575" y="8.703"/><use xlink:href="#E" x="654.239" y="8.703"/></g><path fill="#fff" d="M40.969 273.164h186.976v-109.96H40.97Zm0 0"/><g clip-path="url(#ap)"><path fill="none" stroke="#ccc" stroke-linecap="round" stroke-linejoin="round" stroke-miterlimit="10" stroke-width=".8" d="M49.469 273.164v-109.96"/></g><use xlink:href="#b" x="46.688" y="283.913" fill="#262626"/><g clip-path="url(#aq)"><path fill="none" stroke="#ccc" stroke-linecap="round" stroke-linejoin="round" stroke-miterlimit="10" stroke-width=".8" d="M91.965 273.164v-109.96"/></g><g fill="#262626"><use xlink:href="#d" x="83.619" y="283.913"/><use xlink:href="#b" x="89.179" y="283.913"/><use xlink:href="#b" x="94.739" y="283.913"/></g><g clip-path="url(#ar)"><path fill="none" stroke="#ccc" stroke-linecap="round" stroke-linejoin="round" stroke-miterlimit="10" stroke-width=".8" d="M134.457 273.164v-109.96"/></g><g fill="#262626"><use xlink:href="#f" x="123.332" y="283.913"/><use xlink:href="#b" x="128.892" y="283.913"/><use xlink:href="#b" x="134.452" y="283.913"/><use xlink:href="#b" x="140.012" y="283.913"/></g><g clip-path="url(#as)"><path fill="none" stroke="#ccc" stroke-linecap="round" stroke-linejoin="round" stroke-miterlimit="10" stroke-width=".8" d="M176.953 273.164v-109.96"/></g><g fill="#262626"><use xlink:href="#f" x="165.827" y="283.913"/><use xlink:href="#d" x="171.387" y="283.913"/><use xlink:href="#b" x="176.947" y="283.913"/><use xlink:href="#b" x="182.507" y="283.913"/></g><g clip-path="url(#at)"><path fill="none" stroke="#ccc" stroke-linecap="round" stroke-linejoin="round" stroke-miterlimit="10" stroke-width=".8" d="M219.445 273.164v-109.96"/></g><g fill="#262626"><use xlink:href="#i" x="208.321" y="283.913"/><use xlink:href="#b" x="213.881" y="283.913"/><use xlink:href="#b" x="219.441" y="283.913"/><use xlink:href="#b" x="225.001" y="283.913"/></g><g clip-path="url(#au)"><path fill="none" stroke="#ccc" stroke-linecap="round" stroke-linejoin="round" stroke-miterlimit="10" stroke-width=".8" d="M40.969 273.164h186.976"/></g><g fill="#262626"><use xlink:href="#b" x="18.001" y="276.788"/><use xlink:href="#k" x="23.561" y="276.788"/><use xlink:href="#b" x="26.341" y="276.788"/><use xlink:href="#b" x="31.901" y="276.788"/></g><g clip-path="url(#av)"><path fill="none" stroke="#ccc" stroke-linecap="round" stroke-linejoin="round" stroke-miterlimit="10" stroke-width=".8" d="M40.969 248.172h186.976"/></g><g fill="#262626"><use xlink:href="#b" x="18.001" y="251.797"/><use xlink:href="#k" x="23.561" y="251.797"/><use xlink:href="#i" x="26.341" y="251.797"/><use xlink:href="#d" x="31.901" y="251.797"/></g><g clip-path="url(#aw)"><path fill="none" stroke="#ccc" stroke-linecap="round" stroke-linejoin="round" stroke-miterlimit="10" stroke-width=".8" d="M40.969 223.18h186.976"/></g><g fill="#262626"><use xlink:href="#b" x="18.001" y="226.806"/><use xlink:href="#k" x="23.561" y="226.806"/><use xlink:href="#d" x="26.341" y="226.806"/><use xlink:href="#b" x="31.901" y="226.806"/></g><g clip-path="url(#ax)"><path fill="none" stroke="#ccc" stroke-linecap="round" stroke-linejoin="round" stroke-miterlimit="10" stroke-width=".8" d="M40.969 198.191h186.976"/></g><g fill="#262626"><use xlink:href="#b" x="18.001" y="201.815"/><use xlink:href="#k" x="23.561" y="201.815"/><use xlink:href="#o" x="26.341" y="201.815"/><use xlink:href="#d" x="31.901" y="201.815"/></g><g clip-path="url(#ay)"><path fill="none" stroke="#ccc" stroke-linecap="round" stroke-linejoin="round" stroke-miterlimit="10" stroke-width=".8" d="M40.969 173.2h186.976"/></g><g fill="#262626"><use xlink:href="#f" x="18.001" y="176.824"/><use xlink:href="#k" x="23.561" y="176.824"/><use xlink:href="#b" x="26.341" y="176.824"/><use xlink:href="#b" x="31.901" y="176.824"/></g><g clip-path="url(#az)"><path fill="none" stroke="#00bfaa" stroke-linecap="round" stroke-linejoin="round" stroke-miterlimit="10" stroke-width="1.5" d="m49.469 273.164 42.496-29.988 42.492-29.992 42.496-19.993 42.492-9.996"/></g><g clip-path="url(#aA)"><path fill="#00bfaa" d="M49.469 276.164a3 3 0 0 0 3-3 3 3 0 0 0-3-3 3 3 0 0 0-3 3 3.005 3.005 0 0 0 3 3m0 0"/></g><g clip-path="url(#aB)"><path fill="none" stroke="#00bfaa" stroke-linejoin="round" stroke-miterlimit="10" d="M49.469 276.164a3 3 0 0 0 3-3 3 3 0 0 0-3-3 3 3 0 0 0-3 3 3.005 3.005 0 0 0 3 3Zm0 0"/></g><path fill="#00bfaa" stroke="#00bfaa" stroke-linejoin="round" stroke-miterlimit="10" d="M91.965 246.176a3.005 3.005 0 0 0 3-3c0-.797-.317-1.559-.88-2.125a3 3 0 0 0-2.12-.875 2.994 2.994 0 0 0-3 3 2.998 2.998 0 0 0 3 3ZM134.457 216.184a3 3 0 0 0 3-3 3.005 3.005 0 0 0-3-3 3 3 0 0 0-3 3 3 3 0 0 0 3 3ZM176.953 196.191a3.005 3.005 0 0 0 3-3 3.005 3.005 0 0 0-3-3 3 3 0 0 0-3 3 3 3 0 0 0 3 3ZM219.445 186.195a3 3 0 0 0 3-3 3 3 0 0 0-3-3 3.005 3.005 0 0 0-3 3 3 3 0 0 0 3 3Zm0 0"/><g clip-path="url(#aC)"><path fill="none" stroke="#000" stroke-dasharray="5.55 2.4" stroke-linejoin="round" stroke-miterlimit="10" stroke-width="1.5" d="M40.969 193.191h186.976"/></g><path fill="none" stroke="#ccc" stroke-linecap="square" stroke-miterlimit="10" d="M40.969 273.164v-109.96M227.945 273.164v-109.96M40.969 273.164h186.976M40.969 163.203h186.976"/><g fill="#262626"><use xlink:href="#al" x="56.247" y="157.203"/><use xlink:href="#am" x="64.251" y="157.203"/><use xlink:href="#an" x="66.915" y="157.203"/><use xlink:href="#E" x="73.587" y="157.203"/><use xlink:href="#H" x="80.259" y="157.203"/><use xlink:href="#ao" x="86.931" y="157.203"/><use xlink:href="#ao" x="93.603" y="157.203"/><use xlink:href="#x" x="100.275" y="157.203"/><use xlink:href="#E" x="102.939" y="157.203"/><use xlink:href="#y" x="109.611" y="157.203"/><use xlink:href="#z" x="112.947" y="157.203"/><use xlink:href="#A" x="116.283" y="157.203"/><use xlink:href="#v" x="120.279" y="157.203"/><use xlink:href="#B" x="126.951" y="157.203"/><use xlink:href="#y" x="136.947" y="157.203"/><use xlink:href="#C" x="140.283" y="157.203"/><use xlink:href="#D" x="148.287" y="157.203"/><use xlink:href="#E" x="154.959" y="157.203"/><use xlink:href="#x" x="161.631" y="157.203"/><use xlink:href="#z" x="164.295" y="157.203"/><use xlink:href="#y" x="167.631" y="157.203"/><use xlink:href="#F" x="170.967" y="157.203"/><use xlink:href="#v" x="174.303" y="157.203"/><use xlink:href="#y" x="180.975" y="157.203"/></g><use xlink:href="#G" x="184.107" y="157.203" fill="#262626"/><g fill="#262626"><use xlink:href="#H" x="190.111" y="157.203"/><use xlink:href="#I" x="196.783" y="157.203"/><use xlink:href="#x" x="203.455" y="157.203"/><use xlink:href="#E" x="206.119" y="157.203"/></g><path fill="#fff" d="M265.371 273.164h186.973v-109.96H265.37Zm0 0"/><g clip-path="url(#aD)"><path fill="none" stroke="#ccc" stroke-linecap="round" stroke-linejoin="round" stroke-miterlimit="10" stroke-width=".8" d="M273.867 273.164v-109.96"/></g><use xlink:href="#b" x="271.088" y="283.913" fill="#262626"/><g clip-path="url(#aE)"><path fill="none" stroke="#ccc" stroke-linecap="round" stroke-linejoin="round" stroke-miterlimit="10" stroke-width=".8" d="M316.363 273.164v-109.96"/></g><g fill="#262626"><use xlink:href="#d" x="308.019" y="283.913"/><use xlink:href="#b" x="313.579" y="283.913"/><use xlink:href="#b" x="319.139" y="283.913"/></g><g clip-path="url(#aF)"><path fill="none" stroke="#ccc" stroke-linecap="round" stroke-linejoin="round" stroke-miterlimit="10" stroke-width=".8" d="M358.86 273.164v-109.96"/></g><g fill="#262626"><use xlink:href="#f" x="347.732" y="283.913"/><use xlink:href="#b" x="353.292" y="283.913"/><use xlink:href="#b" x="358.852" y="283.913"/><use xlink:href="#b" x="364.412" y="283.913"/></g><g clip-path="url(#aG)"><path fill="none" stroke="#ccc" stroke-linecap="round" stroke-linejoin="round" stroke-miterlimit="10" stroke-width=".8" d="M401.352 273.164v-109.96"/></g><g fill="#262626"><use xlink:href="#f" x="390.227" y="283.913"/><use xlink:href="#d" x="395.787" y="283.913"/><use xlink:href="#b" x="401.347" y="283.913"/><use xlink:href="#b" x="406.907" y="283.913"/></g><g clip-path="url(#aH)"><path fill="none" stroke="#ccc" stroke-linecap="round" stroke-linejoin="round" stroke-miterlimit="10" stroke-width=".8" d="M443.848 273.164v-109.96"/></g><g fill="#262626"><use xlink:href="#i" x="432.721" y="283.913"/><use xlink:href="#b" x="438.281" y="283.913"/><use xlink:href="#b" x="443.841" y="283.913"/><use xlink:href="#b" x="449.401" y="283.913"/></g><g clip-path="url(#aI)"><path fill="none" stroke="#ccc" stroke-linecap="round" stroke-linejoin="round" stroke-miterlimit="10" stroke-width=".8" d="M265.371 273.164h186.973"/></g><g fill="#262626"><use xlink:href="#b" x="242.401" y="276.788"/><use xlink:href="#k" x="247.961" y="276.788"/><use xlink:href="#b" x="250.741" y="276.788"/><use xlink:href="#b" x="256.301" y="276.788"/></g><g clip-path="url(#aJ)"><path fill="none" stroke="#ccc" stroke-linecap="round" stroke-linejoin="round" stroke-miterlimit="10" stroke-width=".8" d="M265.371 248.172h186.973"/></g><g fill="#262626"><use xlink:href="#b" x="242.401" y="251.797"/><use xlink:href="#k" x="247.961" y="251.797"/><use xlink:href="#i" x="250.741" y="251.797"/><use xlink:href="#d" x="256.301" y="251.797"/></g><g clip-path="url(#aK)"><path fill="none" stroke="#ccc" stroke-linecap="round" stroke-linejoin="round" stroke-miterlimit="10" stroke-width=".8" d="M265.371 223.18h186.973"/></g><g fill="#262626"><use xlink:href="#b" x="242.401" y="226.806"/><use xlink:href="#k" x="247.961" y="226.806"/><use xlink:href="#d" x="250.741" y="226.806"/><use xlink:href="#b" x="256.301" y="226.806"/></g><g clip-path="url(#aL)"><path fill="none" stroke="#ccc" stroke-linecap="round" stroke-linejoin="round" stroke-miterlimit="10" stroke-width=".8" d="M265.371 198.191h186.973"/></g><g fill="#262626"><use xlink:href="#b" x="242.401" y="201.815"/><use xlink:href="#k" x="247.961" y="201.815"/><use xlink:href="#o" x="250.741" y="201.815"/><use xlink:href="#d" x="256.301" y="201.815"/></g><g clip-path="url(#aM)"><path fill="none" stroke="#ccc" stroke-linecap="round" stroke-linejoin="round" stroke-miterlimit="10" stroke-width=".8" d="M265.371 173.2h186.973"/></g><g fill="#262626"><use xlink:href="#f" x="242.401" y="176.824"/><use xlink:href="#k" x="247.961" y="176.824"/><use xlink:href="#b" x="250.741" y="176.824"/><use xlink:href="#b" x="256.301" y="176.824"/></g><g clip-path="url(#aN)"><path fill="none" stroke="#00f" stroke-linecap="round" stroke-linejoin="round" stroke-miterlimit="10" stroke-width="1.5" d="m273.867 273.164 42.496-39.988 42.496-19.992 42.493-19.993 42.496-19.992"/></g><g clip-path="url(#aO)"><path fill="#00f" d="M273.867 276.164a3 3 0 0 0 3-3c0-.797-.312-1.559-.879-2.121a3 3 0 0 0-4.242 0 3 3 0 0 0 0 4.242 3 3 0 0 0 2.121.88m0 0"/></g><g clip-path="url(#aP)"><path fill="none" stroke="#00f" stroke-linejoin="round" stroke-miterlimit="10" d="M273.867 276.164a3 3 0 0 0 3-3c0-.797-.312-1.559-.879-2.121a3 3 0 0 0-4.242 0 3 3 0 0 0 0 4.242 3 3 0 0 0 2.121.88Zm0 0"/></g><path fill="#00f" stroke="#00f" stroke-linejoin="round" stroke-miterlimit="10" d="M316.363 236.176a2.994 2.994 0 0 0 3-3 3.005 3.005 0 0 0-3-3 3 3 0 0 0-3 3 2.994 2.994 0 0 0 3 3ZM358.86 216.184a3.005 3.005 0 0 0 3-3 3.005 3.005 0 0 0-3-3c-.798 0-1.563.316-2.126.879a3 3 0 0 0-.875 2.12 2.994 2.994 0 0 0 3 3ZM401.352 196.191a3 3 0 0 0 3-3 3.005 3.005 0 0 0-3-3 3 3 0 0 0-3 3 3 3 0 0 0 3 3ZM443.848 176.2a3.005 3.005 0 0 0 3-3 3 3 0 0 0-3-3 3 3 0 0 0-3 3 3 3 0 0 0 3 3Zm0 0"/><g clip-path="url(#aQ)"><path fill="none" stroke="#000" stroke-dasharray="5.55 2.4" stroke-linejoin="round" stroke-miterlimit="10" stroke-width="1.5" d="M265.371 173.2h186.973"/></g><path fill="none" stroke="#ccc" stroke-linecap="square" stroke-miterlimit="10" d="M265.371 273.164v-109.96M452.344 273.164v-109.96M265.371 273.164h186.973M265.371 163.203h186.973"/><g fill="#262626"><use xlink:href="#al" x="310.834" y="157.203"/><use xlink:href="#am" x="318.838" y="157.203"/><use xlink:href="#an" x="321.502" y="157.203"/><use xlink:href="#E" x="328.174" y="157.203"/><use xlink:href="#H" x="334.846" y="157.203"/><use xlink:href="#ao" x="341.518" y="157.203"/><use xlink:href="#ao" x="348.19" y="157.203"/><use xlink:href="#x" x="354.862" y="157.203"/><use xlink:href="#E" x="357.526" y="157.203"/><use xlink:href="#y" x="364.198" y="157.203"/><use xlink:href="#F" x="367.534" y="157.203"/><use xlink:href="#v" x="370.87" y="157.203"/><use xlink:href="#y" x="377.542" y="157.203"/><use xlink:href="#u" x="380.878" y="157.203"/><use xlink:href="#v" x="388.882" y="157.203"/><use xlink:href="#w" x="395.554" y="157.203"/><use xlink:href="#x" x="404.218" y="157.203"/></g><path fill="#fff" d="M489.77 273.164h186.976v-109.96H489.77Zm0 0"/><g clip-path="url(#aR)"><path fill="none" stroke="#ccc" stroke-linecap="round" stroke-linejoin="round" stroke-miterlimit="10" stroke-width=".8" d="M498.27 273.164v-109.96"/></g><use xlink:href="#b" x="495.488" y="283.913" fill="#262626"/><g clip-path="url(#aS)"><path fill="none" stroke="#ccc" stroke-linecap="round" stroke-linejoin="round" stroke-miterlimit="10" stroke-width=".8" d="M540.762 273.164v-109.96"/></g><g fill="#262626"><use xlink:href="#d" x="532.419" y="283.913"/><use xlink:href="#b" x="537.979" y="283.913"/><use xlink:href="#b" x="543.539" y="283.913"/></g><g clip-path="url(#aT)"><path fill="none" stroke="#ccc" stroke-linecap="round" stroke-linejoin="round" stroke-miterlimit="10" stroke-width=".8" d="M583.258 273.164v-109.96"/></g><g fill="#262626"><use xlink:href="#f" x="572.132" y="283.913"/><use xlink:href="#b" x="577.692" y="283.913"/><use xlink:href="#b" x="583.252" y="283.913"/><use xlink:href="#b" x="588.812" y="283.913"/></g><g clip-path="url(#aU)"><path fill="none" stroke="#ccc" stroke-linecap="round" stroke-linejoin="round" stroke-miterlimit="10" stroke-width=".8" d="M625.75 273.164v-109.96"/></g><g fill="#262626"><use xlink:href="#f" x="614.627" y="283.913"/><use xlink:href="#d" x="620.187" y="283.913"/><use xlink:href="#b" x="625.747" y="283.913"/><use xlink:href="#b" x="631.307" y="283.913"/></g><g clip-path="url(#aV)"><path fill="none" stroke="#ccc" stroke-linecap="round" stroke-linejoin="round" stroke-miterlimit="10" stroke-width=".8" d="M668.246 273.164v-109.96"/></g><g fill="#262626"><use xlink:href="#i" x="657.121" y="283.913"/><use xlink:href="#b" x="662.681" y="283.913"/><use xlink:href="#b" x="668.241" y="283.913"/><use xlink:href="#b" x="673.801" y="283.913"/></g><g clip-path="url(#aW)"><path fill="none" stroke="#ccc" stroke-linecap="round" stroke-linejoin="round" stroke-miterlimit="10" stroke-width=".8" d="M489.77 273.164h186.976"/></g><g fill="#262626"><use xlink:href="#b" x="466.801" y="276.788"/><use xlink:href="#k" x="472.361" y="276.788"/><use xlink:href="#b" x="475.141" y="276.788"/><use xlink:href="#b" x="480.701" y="276.788"/></g><g clip-path="url(#aX)"><path fill="none" stroke="#ccc" stroke-linecap="round" stroke-linejoin="round" stroke-miterlimit="10" stroke-width=".8" d="M489.77 248.172h186.976"/></g><g fill="#262626"><use xlink:href="#b" x="466.801" y="251.797"/><use xlink:href="#k" x="472.361" y="251.797"/><use xlink:href="#i" x="475.141" y="251.797"/><use xlink:href="#d" x="480.701" y="251.797"/></g><g clip-path="url(#aY)"><path fill="none" stroke="#ccc" stroke-linecap="round" stroke-linejoin="round" stroke-miterlimit="10" stroke-width=".8" d="M489.77 223.18h186.976"/></g><g fill="#262626"><use xlink:href="#b" x="466.801" y="226.806"/><use xlink:href="#k" x="472.361" y="226.806"/><use xlink:href="#d" x="475.141" y="226.806"/><use xlink:href="#b" x="480.701" y="226.806"/></g><g clip-path="url(#aZ)"><path fill="none" stroke="#ccc" stroke-linecap="round" stroke-linejoin="round" stroke-miterlimit="10" stroke-width=".8" d="M489.77 198.191h186.976"/></g><g fill="#262626"><use xlink:href="#b" x="466.801" y="201.815"/><use xlink:href="#k" x="472.361" y="201.815"/><use xlink:href="#o" x="475.141" y="201.815"/><use xlink:href="#d" x="480.701" y="201.815"/></g><g clip-path="url(#ba)"><path fill="none" stroke="#ccc" stroke-linecap="round" stroke-linejoin="round" stroke-miterlimit="10" stroke-width=".8" d="M489.77 173.2h186.976"/></g><g fill="#262626"><use xlink:href="#f" x="466.801" y="176.824"/><use xlink:href="#k" x="472.361" y="176.824"/><use xlink:href="#b" x="475.141" y="176.824"/><use xlink:href="#b" x="480.701" y="176.824"/></g><g clip-path="url(#bb)"><path fill="none" stroke="#6e00ff" stroke-linecap="round" stroke-linejoin="round" stroke-miterlimit="10" stroke-width="1.5" d="m498.27 273.164 42.492-19.992 42.496-19.996 42.492-29.988 42.496-19.993"/></g><g clip-path="url(#bc)"><path fill="#6e00ff" d="M498.27 276.164a3 3 0 0 0 3-3 3 3 0 0 0-3-3 3 3 0 0 0-3 3 3.005 3.005 0 0 0 3 3m0 0"/></g><g clip-path="url(#bd)"><path fill="none" stroke="#6e00ff" stroke-linejoin="round" stroke-miterlimit="10" d="M498.27 276.164a3 3 0 0 0 3-3 3 3 0 0 0-3-3 3 3 0 0 0-3 3 3.005 3.005 0 0 0 3 3Zm0 0"/></g><path fill="#6e00ff" stroke="#6e00ff" stroke-linejoin="round" stroke-miterlimit="10" d="M540.762 256.172a3 3 0 0 0 3-3 3 3 0 0 0-3-3 3.005 3.005 0 0 0-3 3 3.005 3.005 0 0 0 3 3ZM583.258 236.176a2.994 2.994 0 0 0 3-3 3.005 3.005 0 0 0-3-3 3 3 0 0 0-3 3 2.994 2.994 0 0 0 3 3ZM625.75 206.188a2.994 2.994 0 0 0 3-3 3 3 0 0 0-.875-2.122 3.005 3.005 0 0 0-5.125 2.121 3 3 0 0 0 3 3ZM668.246 186.195a3 3 0 0 0 3-3 3 3 0 0 0-3-3 3 3 0 0 0-3 3 3 3 0 0 0 3 3Zm0 0"/><g clip-path="url(#be)"><path fill="none" stroke="#000" stroke-dasharray="5.55 2.4" stroke-linejoin="round" stroke-miterlimit="10" stroke-width="1.5" d="M489.77 193.191h186.976"/></g><path fill="none" stroke="#ccc" stroke-linecap="square" stroke-miterlimit="10" d="M489.77 273.164v-109.96M676.746 273.164v-109.96M489.77 273.164h186.976M489.77 163.203h186.976"/><g fill="#262626"><use xlink:href="#al" x="534.57" y="157.203"/><use xlink:href="#am" x="542.574" y="157.203"/><use xlink:href="#an" x="545.238" y="157.203"/><use xlink:href="#E" x="551.91" y="157.203"/><use xlink:href="#H" x="558.582" y="157.203"/><use xlink:href="#ao" x="565.254" y="157.203"/><use xlink:href="#ao" x="571.926" y="157.203"/><use xlink:href="#x" x="578.598" y="157.203"/><use xlink:href="#E" x="581.262" y="157.203"/><use xlink:href="#y" x="587.934" y="157.203"/><use xlink:href="#F" x="591.27" y="157.203"/><use xlink:href="#v" x="594.606" y="157.203"/><use xlink:href="#y" x="601.278" y="157.203"/><use xlink:href="#C" x="604.614" y="157.203"/><use xlink:href="#D" x="612.618" y="157.203"/><use xlink:href="#E" x="619.29" y="157.203"/><use xlink:href="#x" x="625.962" y="157.203"/><use xlink:href="#z" x="628.626" y="157.203"/></g><use xlink:href="#G" x="293.536" y="300.303" fill="#262626"/><g fill="#262626"><use xlink:href="#v" x="299.54" y="300.303"/><use xlink:href="#F" x="306.212" y="300.303"/><use xlink:href="#H" x="309.548" y="300.303"/><use xlink:href="#x" x="316.22" y="300.303"/><use xlink:href="#y" x="318.884" y="300.303"/></g><g fill="#262626" clip-path="url(#bf)"><use xlink:href="#bg" x="321.564" y="300.303"/><use xlink:href="#F" x="329.568" y="300.303"/><use xlink:href="#F" x="332.904" y="300.303"/><use xlink:href="#E" x="336.24" y="300.303"/><use xlink:href="#B" x="342.912" y="300.303"/><use xlink:href="#ao" x="352.908" y="300.303"/><use xlink:href="#F" x="359.58" y="300.303"/><use xlink:href="#bh" x="362.916" y="300.303"/></g><g fill="#262626"><use xlink:href="#bi" x="8.703" y="188.271"/><use xlink:href="#bj" x="8.703" y="180.267"/><use xlink:href="#bk" x="8.703" y="173.595"/><use xlink:href="#bk" x="8.703" y="167.595"/><use xlink:href="#bl" x="8.703" y="161.595"/><use xlink:href="#bm" x="8.703" y="154.923"/><use xlink:href="#bm" x="8.703" y="148.923"/><use xlink:href="#bn" x="8.703" y="142.923"/><use xlink:href="#bo" x="8.703" y="139.587"/><use xlink:href="#bp" x="8.703" y="130.923"/><use xlink:href="#bq" x="8.703" y="124.251"/><use xlink:href="#bl" x="8.703" y="120.915"/></g></svg>